{
  "accessors": [
    {
      "bufferView": 2,
      "componentType": 5126,
      "count": 384,
      "max": [
        0.5879999995231628,
        -1.2121000289916992,
        16.499000549316406
      ],
      "min": [
        -0.5659999847412109,
        -1.538599967956543,
        16.333599090576172
      ],
      "type": "VEC3"
    },
    {
      "bufferView": 2,
      "byteOffset": 4608,
      "componentType": 5126,
      "count": 384,
      "max": [
        0.9059280157089233,
        -0.006870999000966549,
        0.8793672323226929
      ],
      "min": [
        -0.9059239029884338,
        -0.994064211845398,
        -0.9706108570098877
      ],
      "type": "VEC3"
    },
    {
      "bufferView": 1,
      "componentType": 5126,
      "count": 384,
      "max": [
        0.9545000195503235,
        0.984000027179718
      ],
      "min": [
        0.033900000154972076,
        0.050599999725818634
      ],
      "type": "VEC2"
    },
    {
      "bufferView": 0,
      "componentType": 5125,
      "count": 576,
      "type": "SCALAR"
    },
    {
      "bufferView": 2,
      "byteOffset": 9216,
      "componentType": 5126,
      "count": 14240,
      "max": [
        0.3287999927997589,
        -0.7865999937057495,
        15.823399543762207
      ],
      "min": [
        -0.3068000078201294,
        -1.4718999862670898,
        15.39490032196045
      ],
      "type": "VEC3"
    },
    {
      "bufferView": 2,
      "byteOffset": 180096,
      "componentType": 5126,
      "count": 14240,
      "max": [
        0.9999163746833801,
        0.998159646987915,
        1.0
      ],
      "min": [
        -0.9999163746833801,
        -0.9995898604393005,
        -0.9999456405639648
      ],
      "type": "VEC3"
    },
    {
      "bufferView": 1,
      "byteOffset": 3072,
      "componentType": 5126,
      "count": 14240,
      "max": [
        0.9800000190734863,
        0.9930999875068665
      ],
      "min": [
        0.006899999920278788,
        0.006899999920278788
      ],
      "type": "VEC2"
    },
    {
      "bufferView": 0,
      "byteOffset": 2304,
      "componentType": 5125,
      "count": 21360,
      "type": "SCALAR"
    },
    {
      "bufferView": 2,
      "byteOffset": 350976,
      "componentType": 5126,
      "count": 6920,
      "max": [
        0.7752000093460083,
        0.5077999830245972,
        17.42620086669922
      ],
      "min": [
        -0.7594000101089478,
        -1.57260000705719,
        15.406399726867676
      ],
      "type": "VEC3"
    },
    {
      "bufferView": 2,
      "byteOffset": 434016,
      "componentType": 5126,
      "count": 6920,
      "max": [
        0.9998654723167419,
        0.9991481304168701,
        0.9998347759246826
      ],
      "min": [
        -0.9998863339424133,
        -0.9864362478256226,
        -0.7976888418197632
      ],
      "type": "VEC3"
    },
    {
      "bufferView": 1,
      "byteOffset": 116992,
      "componentType": 5126,
      "count": 6920,
      "max": [
        0.9925000071525574,
        0.9961000084877014
      ],
      "min": [
        0.0038999998942017555,
        0.0038999998942017555
      ],
      "type": "VEC2"
    },
    {
      "bufferView": 0,
      "byteOffset": 87744,
      "componentType": 5125,
      "count": 10380,
      "type": "SCALAR"
    },
    {
      "bufferView": 2,
      "byteOffset": 517056,
      "componentType": 5126,
      "count": 14512,
      "max": [
        5.79040002822876,
        1.1363999843597412,
        17.334299087524414
      ],
      "min": [
        -5.753399848937988,
        -3.7084999084472656,
        0.001500000013038516
      ],
      "type": "VEC3"
    },
    {
      "bufferView": 2,
      "byteOffset": 691200,
      "componentType": 5126,
      "count": 14512,
      "max": [
        0.9999383687973022,
        0.9999549984931946,
        0.9995868802070618
      ],
      "min": [
        -0.999935507774353,
        -0.9999998807907104,
        -0.9999913573265076
      ],
      "type": "VEC3"
    },
    {
      "bufferView": 1,
      "byteOffset": 172352,
      "componentType": 5126,
      "count": 14512,
      "max": [
        0.9934999942779541,
        0.9837999939918518
      ],
      "min": [
        0.009200000204145908,
        0.009600000455975533
      ],
      "type": "VEC2"
    },
    {
      "bufferView": 0,
      "byteOffset": 129264,
      "componentType": 5125,
      "count": 80268,
      "type": "SCALAR"
    },
    {
      "bufferView": 2,
      "byteOffset": 865344,
      "componentType": 5126,
      "count": 256,
      "max": [
        0.44353899359703064,
        -1.1857999563217163,
        16.41119956970215
      ],
      "min": [
        -0.4228610098361969,
        -1.4198999404907227,
        16.13610076904297
      ],
      "type": "VEC3"
    },
    {
      "bufferView": 2,
      "byteOffset": 868416,
      "componentType": 5126,
      "count": 256,
      "max": [
        0.9990488886833191,
        0.3283880054950714,
        0.9976665377616882
      ],
      "min": [
        -0.9990487694740295,
        -0.8846731185913086,
        -0.9969586133956909
      ],
      "type": "VEC3"
    },
    {
      "bufferView": 1,
      "byteOffset": 288448,
      "componentType": 5126,
      "count": 256,
      "max": [
        0.9452999830245972,
        0.9613000154495239
      ],
      "min": [
        0.03480000048875809,
        0.039900001138448715
      ],
      "type": "VEC2"
    },
    {
      "bufferView": 0,
      "byteOffset": 450336,
      "componentType": 5125,
      "count": 384,
      "type": "SCALAR"
    },
    {
      "bufferView": 2,
      "byteOffset": 871488,
      "componentType": 5126,
      "count": 64,
      "max": [
        0.37063899636268616,
        -1.4017000198364258,
        16.313499450683594
      ],
      "min": [
        -0.3499610126018524,
        -1.424036979675293,
        16.208599090576172
      ],
      "type": "VEC3"
    },
    {
      "bufferView": 2,
      "byteOffset": 872256,
      "componentType": 5126,
      "count": 64,
      "max": [
        0.4117518365383148,
        -0.8904682397842407,
        0.2517108917236328
      ],
      "min": [
        -0.4146280884742737,
        -0.9817781448364258,
        -0.4298976957798004
      ],
      "type": "VEC3"
    },
    {
      "bufferView": 1,
      "byteOffset": 290496,
      "componentType": 5126,
      "count": 64,
      "max": [
        0.6639000177383423,
        0.6680999994277954
      ],
      "min": [
        0.3301999866962433,
        0.3312000036239624
      ],
      "type": "VEC2"
    },
    {
      "bufferView": 0,
      "byteOffset": 451872,
      "componentType": 5125,
      "count": 96,
      "type": "SCALAR"
    },
    {
      "bufferView": 2,
      "byteOffset": 873024,
      "componentType": 5126,
      "count": 24,
      "max": [
        0.3441390097141266,
        -1.4143999814987183,
        16.286500930786133
      ],
      "min": [
        -0.32346099615097046,
        -1.424036979675293,
        16.233699798583984
      ],
      "type": "VEC3"
    },
    {
      "bufferView": 2,
      "byteOffset": 873312,
      "componentType": 5126,
      "count": 24,
      "max": [
        0.12996500730514526,
        -0.9843190908432007,
        -0.05209698900580406
      ],
      "min": [
        -0.12995897233486176,
        -0.990149736404419,
        -0.12661601603031158
      ],
      "type": "VEC3"
    },
    {
      "bufferView": 1,
      "byteOffset": 291008,
      "componentType": 5126,
      "count": 24,
      "max": [
        0.5821999907493591,
        0.5861999988555908
      ],
      "min": [
        0.4124000072479248,
        0.414000004529953
      ],
      "type": "VEC2"
    },
    {
      "bufferView": 0,
      "byteOffset": 452256,
      "componentType": 5125,
      "count": 36,
      "type": "SCALAR"
    }
  ],
  "asset": {
    "extras": {
      "author": "Bryan Alves (https://sketchfab.com/bryanadm)",
      "license": "CC-BY-4.0 (http://creativecommons.org/licenses/by/4.0/)",
      "source": "https://sketchfab.com/3d-models/human-body-2f37a5d6ed6a43c4b1f4782d3f99e73f",
      "title": "Human Body"
    },
    "generator": "Sketchfab-12.65.0",
    "version": "2.0"
  },
  "bufferViews": [
    {
      "buffer": 0,
      "byteLength": 452400,
      "name": "floatBufferViews",
      "target": 34963
    },
    {
      "buffer": 0,
      "byteLength": 291200,
      "byteOffset": 452400,
      "byteStride": 8,
      "name": "floatBufferViews",
      "target": 34962
    },
    {
      "buffer": 0,
      "byteLength": 873600,
      "byteOffset": 743600,
      "byteStride": 12,
      "name": "floatBufferViews",
      "target": 34962
    }
  ],
  "buffers": [
    {
      "byteLength": 1617200,
      "uri": "scene.bin"
    }
  ],
  "materials": [
    {
      "doubleSided": true,
      "name": "Desktopeyebrow004",
      "pbrMetallicRoughness": {
        "baseColorFactor": [
          0.5,
          0.5,
          0.5,
          1.0
        ],
        "metallicFactor": 0.0,
        "roughnessFactor": 0.6
      }
    },
    {
      "doubleSided": true,
      "name": "DesktopteethMaterial",
      "pbrMetallicRoughness": {
        "baseColorFactor": [
          0.5,
          0.5,
          0.5,
          1.0
        ],
        "metallicFactor": 0.0,
        "roughnessFactor": 0.6
      }
    },
    {
      "doubleSided": true,
      "name": "lambert12SG",
      "pbrMetallicRoughness": {
        "baseColorFactor": [
          0.5,
          0.5,
          0.5,
          1.0
        ],
        "metallicFactor": 0.0,
        "roughnessFactor": 0.6
      }
    },
    {
      "doubleSided": true,
      "name": "lambert2SG",
      "pbrMetallicRoughness": {
        "baseColorFactor": [
          0.5,
          0.5,
          0.5,
          1.0
        ],
        "metallicFactor": 0.0,
        "roughnessFactor": 0.6
      }
    },
    {
      "doubleSided": true,
      "name": "lambert4SG",
      "pbrMetallicRoughness": {
        "baseColorFactor": [
          0.5,
          0.5,
          0.5,
          1.0
        ],
        "metallicFactor": 0.0,
        "roughnessFactor": 0.6
      }
    },
    {
      "doubleSided": true,
      "name": "lambert5SG",
      "pbrMetallicRoughness": {
        "baseColorFactor": [
          0.5,
          0.5,
          0.5,
          1.0
        ],
        "metallicFactor": 0.0,
        "roughnessFactor": 0.6
      }
    },
    {
      "doubleSided": true,
      "name": "lambert8SG",
      "pbrMetallicRoughness": {
        "baseColorFactor": [
          0.5,
          0.5,
          0.5,
          1.0
        ],
        "metallicFactor": 0.0,
        "roughnessFactor": 0.6
      }
    }
  ],
  "meshes": [
    {
      "name": "Object_0",
      "primitives": [
        {
          "attributes": {
            "NORMAL": 1,
            "POSITION": 0,
            "TEXCOORD_0": 2
          },
          "indices": 3,
          "material": 0,
          "mode": 4
        }
      ]
    },
    {
      "name": "Object_1",
      "primitives": [
        {
          "attributes": {
            "NORMAL": 5,
            "POSITION": 4,
            "TEXCOORD_0": 6
          },
          "indices": 7,
          "material": 1,
          "mode": 4
        }
      ]
    },
    {
      "name": "Object_2",
      "primitives": [
        {
          "attributes": {
            "NORMAL": 9,
            "POSITION": 8,
            "TEXCOORD_0": 10
          },
          "indices": 11,
          "material": 2,
          "mode": 4
        }
      ]
    },
    {
      "name": "Object_3",
      "primitives": [
        {
          "attributes": {
            "NORMAL": 13,
            "POSITION": 12,
            "TEXCOORD_0": 14
          },
          "indices": 15,
          "material": 3,
          "mode": 4
        }
      ]
    },
    {
      "name": "Object_4",
      "primitives": [
        {
          "attributes": {
            "NORMAL": 17,
            "POSITION": 16,
            "TEXCOORD_0": 18
          },
          "indices": 19,
          "material": 4,
          "mode": 4
        }
      ]
    },
    {
      "name": "Object_5",
      "primitives": [
        {
          "attributes": {
            "NORMAL": 21,
            "POSITION": 20,
            "TEXCOORD_0": 22
          },
          "indices": 23,
          "material": 5,
          "mode": 4
        }
      ]
    },
    {
      "name": "Object_6",
      "primitives": [
        {
          "attributes": {
            "NORMAL": 25,
            "POSITION": 24,
            "TEXCOORD_0": 26
          },
          "indices": 27,
          "material": 6,
          "mode": 4
        }
      ]
    }
  ],
  "nodes": [
    {
      "children": [
        1
      ],
      "matrix": [
        1.0,
        0.0,
        0.0,
        0.0,
        0.0,
        2.220446049250313e-16,
        -1.0,
        0.0,
        0.0,
        1.0,
        2.220446049250313e-16,
        0.0,
        0.0,
        0.0,
        0.0,
        1.0
      ],
      "name": "Sketchfab_model"
    },
    {
      "children": [
        2,
        3,
        4,
        5,
        6,
        7,
        8
      ],
      "name": "human body.obj.cleaner"
    },
    {
      "mesh": 0,
      "name": "Object_2"
    },
    {
      "mesh": 1,
      "name": "Object_3"
    },
    {
      "mesh": 2,
      "name": "Object_4"
    },
    {
      "mesh": 3,
      "name": "Object_5"
    },
    {
      "mesh": 4,
      "name": "Object_6"
    },
    {
      "mesh": 5,
      "name": "Object_7"
    },
    {
      "mesh": 6,
      "name": "Object_8"
    }
  ],
  "scene": 0,
  "scenes": [
    {
      "name": "Sketchfab_Scene",
      "nodes": [
        0
      ]
    }
  ]
}
